M48
;DRILL file {Pcbnew (2014-01-19 BZR 4624)-product} date 5/30/2014 10:08:58 AM
;FORMAT={-:-/ absolute / metric / decimal}
FMAT,2
METRIC,TZ
T1C0.500
T2C1.100
T3C1.200
%
G90
G05
M71
T1
X77.Y-58.
X77.Y-60.
X77.Y-62.
X80.Y-58.
X80.Y-60.
X80.Y-62.
X83.Y-58.
X83.Y-60.
X83.Y-62.
X117.Y-58.
X117.Y-60.
X117.Y-62.
X120.Y-58.
X120.Y-60.
X120.Y-62.
X123.Y-58.
X123.Y-60.
X123.Y-62.
T2
X65.7Y-60.7
X77.75Y-32.2
X82.7Y-44.85
X103.Y-44.85
X107.75Y-32.2
X110.75Y-44.85
X110.75Y-53.3
X127.75Y-44.85
X127.75Y-53.3
X129.7Y-60.7
T3
X68.95Y-43.
X68.95Y-48.
X123.85Y-32.7
X128.85Y-32.7
T0
M30
