%FSLAX34Y34*%
G04 Gerber Fmt 3.4, Leading zero omitted, Abs format*
G04 (created by PCBNEW (2014-01-19 BZR 4624)-product) date 5/30/2014 10:24:27 AM*
%MOIN*%
G01*
G70*
G90*
G04 APERTURE LIST*
%ADD10C,0.005906*%
%ADD11C,0.003937*%
%ADD12C,0.006890*%
G04 APERTURE END LIST*
G54D10*
G54D11*
X25196Y-10629D02*
G75*
G03X24803Y-11023I0J-393D01*
G74*
G01*
X24803Y-24803D02*
G75*
G03X25196Y-25196I393J0D01*
G74*
G01*
X51732Y-25196D02*
G75*
G03X52125Y-24803I0J393D01*
G74*
G01*
X52125Y-11023D02*
G75*
G03X51732Y-10629I-393J0D01*
G74*
G01*
X25196Y-10629D02*
X51732Y-10629D01*
X52125Y-11023D02*
X52125Y-24803D01*
X24803Y-24803D02*
X24803Y-11023D01*
X51732Y-25196D02*
X25196Y-25196D01*
X39960Y-23228D02*
X39960Y-22893D01*
X41535Y-22893D02*
X41535Y-23228D01*
G54D12*
X40846Y-24107D02*
X40859Y-24120D01*
X40872Y-24160D01*
X40872Y-24186D01*
X40859Y-24225D01*
X40833Y-24251D01*
X40807Y-24265D01*
X40754Y-24278D01*
X40715Y-24278D01*
X40662Y-24265D01*
X40636Y-24251D01*
X40610Y-24225D01*
X40597Y-24186D01*
X40597Y-24160D01*
X40610Y-24120D01*
X40623Y-24107D01*
X40597Y-23989D02*
X40820Y-23989D01*
X40846Y-23976D01*
X40859Y-23963D01*
X40872Y-23937D01*
X40872Y-23884D01*
X40859Y-23858D01*
X40846Y-23845D01*
X40820Y-23832D01*
X40597Y-23832D01*
X40597Y-23740D02*
X40597Y-23582D01*
X40872Y-23661D02*
X40597Y-23661D01*
X40597Y-23228D02*
X40597Y-23175D01*
X40610Y-23149D01*
X40636Y-23123D01*
X40688Y-23110D01*
X40780Y-23110D01*
X40833Y-23123D01*
X40859Y-23149D01*
X40872Y-23175D01*
X40872Y-23228D01*
X40859Y-23254D01*
X40833Y-23280D01*
X40780Y-23293D01*
X40688Y-23293D01*
X40636Y-23280D01*
X40610Y-23254D01*
X40597Y-23228D01*
X40597Y-22992D02*
X40820Y-22992D01*
X40846Y-22979D01*
X40859Y-22965D01*
X40872Y-22939D01*
X40872Y-22887D01*
X40859Y-22860D01*
X40846Y-22847D01*
X40820Y-22834D01*
X40597Y-22834D01*
X40597Y-22742D02*
X40597Y-22585D01*
X40872Y-22664D02*
X40597Y-22664D01*
G54D11*
X41535Y-22893D02*
G75*
G03X40748Y-22106I-787J0D01*
G74*
G01*
X40748Y-22106D02*
G75*
G03X39960Y-22893I0J-787D01*
G74*
G01*
X39960Y-24015D02*
X39960Y-23228D01*
X39960Y-24015D02*
G75*
G03X40748Y-24803I787J0D01*
G74*
G01*
X41535Y-24015D02*
X41535Y-23228D01*
X40748Y-24803D02*
G75*
G03X41535Y-24015I0J787D01*
G74*
G01*
M02*
