%FSLAX34Y34*%
G04 Gerber Fmt 3.4, Leading zero omitted, Abs format*
G04 (created by PCBNEW (2014-01-19 BZR 4624)-product) date 5/30/2014 10:24:27 AM*
%MOIN*%
G01*
G70*
G90*
G04 APERTURE LIST*
%ADD10C,0.005906*%
%ADD11C,0.118110*%
%ADD12R,0.118110X0.078740*%
%ADD13C,0.098425*%
%ADD14C,0.098425*%
G04 APERTURE END LIST*
G54D10*
G54D11*
X25866Y-23897D03*
X51062Y-23897D03*
G54D12*
X31496Y-23622D03*
X30314Y-23622D03*
X32677Y-23622D03*
X31496Y-22834D03*
X32677Y-22834D03*
X30314Y-22834D03*
X30314Y-24409D03*
X31496Y-24409D03*
X32677Y-24409D03*
X47244Y-23622D03*
X48425Y-23622D03*
X46062Y-23622D03*
X46062Y-22834D03*
X47244Y-22834D03*
X48425Y-22834D03*
X48425Y-24409D03*
X47244Y-24409D03*
X46062Y-24409D03*
G54D11*
X30610Y-12677D03*
X42421Y-12677D03*
X32559Y-17657D03*
X40551Y-17657D03*
G54D13*
X27145Y-16929D03*
X27145Y-18897D03*
X50728Y-12874D03*
X48759Y-12874D03*
G54D11*
X43602Y-20984D03*
X50295Y-20984D03*
X43602Y-17657D03*
X50295Y-17657D03*
G54D14*
X31496Y-22834D02*
X30314Y-22834D01*
X30314Y-22834D02*
X30314Y-24409D01*
X31496Y-22834D02*
X30314Y-22834D01*
X30314Y-22834D02*
X30314Y-23622D01*
X30314Y-23622D02*
X31496Y-23622D01*
X31496Y-23622D02*
X32677Y-23622D01*
X32677Y-23622D02*
X32677Y-24409D01*
X32677Y-24409D02*
X31496Y-24409D01*
X31496Y-24409D02*
X30314Y-24409D01*
X30314Y-24409D02*
X30314Y-23622D01*
X30314Y-23622D02*
X30314Y-22834D01*
X30314Y-22834D02*
X32677Y-22834D01*
X32677Y-22834D02*
X32677Y-24409D01*
X48425Y-23622D02*
X46062Y-23622D01*
X48425Y-22834D02*
X47244Y-22834D01*
X47244Y-22834D02*
X46062Y-22834D01*
X46062Y-22834D02*
X46062Y-23622D01*
X46062Y-23622D02*
X46062Y-24409D01*
X46062Y-24409D02*
X47244Y-24409D01*
X47244Y-24409D02*
X48425Y-24409D01*
X48425Y-24409D02*
X48425Y-23622D01*
X48425Y-23622D02*
X48425Y-22834D01*
X47244Y-22834D02*
X47244Y-23622D01*
X47244Y-23622D02*
X47244Y-24409D01*
M02*
