M48
;DRILL file {Pcbnew (2014-01-19 BZR 4624)-product} date 5/28/2014 2:33:28 AM
;FORMAT={-:-/ absolute / metric / decimal}
FMAT,2
METRIC,TZ
T1C0.500
T2C1.100
T3C1.200
%
G90
G05
M71
T1
X77.Y-58.
X77.Y-60.
X77.Y-62.
X80.Y-58.
X80.Y-60.
X80.Y-62.
X83.Y-58.
X83.Y-60.
X83.Y-62.
X117.Y-58.
X117.Y-60.
X117.Y-62.
X120.Y-58.
X120.Y-60.
X120.Y-62.
X123.Y-58.
X123.Y-60.
X123.Y-62.
T2
X69.9Y-60.7
X81.Y-37.2
X83.05Y-47.95
X103.35Y-47.95
X111.Y-37.2
X111.45Y-47.45
X111.55Y-54.1
X128.45Y-47.45
X128.55Y-54.1
X129.9Y-60.7
T3
X72.45Y-43.55
X72.45Y-48.55
X127.7Y-36.4
X127.7Y-41.4
T0
M30
