%FSLAX34Y34*%
G04 Gerber Fmt 3.4, Leading zero omitted, Abs format*
G04 (created by PCBNEW (2014-01-19 BZR 4624)-product) date 5/30/2014 10:24:27 AM*
%MOIN*%
G01*
G70*
G90*
G04 APERTURE LIST*
%ADD10C,0.005906*%
%ADD11C,0.011811*%
G04 APERTURE END LIST*
G54D10*
G54D11*
X40880Y-16576D02*
X41077Y-16294D01*
X41217Y-16576D02*
X41217Y-15985D01*
X40992Y-15985D01*
X40936Y-16013D01*
X40908Y-16041D01*
X40880Y-16098D01*
X40880Y-16182D01*
X40908Y-16238D01*
X40936Y-16266D01*
X40992Y-16294D01*
X41217Y-16294D01*
X40402Y-16548D02*
X40458Y-16576D01*
X40570Y-16576D01*
X40627Y-16548D01*
X40655Y-16491D01*
X40655Y-16266D01*
X40627Y-16210D01*
X40570Y-16182D01*
X40458Y-16182D01*
X40402Y-16210D01*
X40374Y-16266D01*
X40374Y-16323D01*
X40655Y-16379D01*
X40177Y-16182D02*
X40036Y-16576D01*
X39895Y-16182D01*
X39670Y-16576D02*
X39670Y-16182D01*
X39670Y-15985D02*
X39699Y-16013D01*
X39670Y-16041D01*
X39642Y-16013D01*
X39670Y-15985D01*
X39670Y-16041D01*
X39417Y-16548D02*
X39361Y-16576D01*
X39249Y-16576D01*
X39192Y-16548D01*
X39164Y-16491D01*
X39164Y-16463D01*
X39192Y-16407D01*
X39249Y-16379D01*
X39333Y-16379D01*
X39389Y-16351D01*
X39417Y-16294D01*
X39417Y-16266D01*
X39389Y-16210D01*
X39333Y-16182D01*
X39249Y-16182D01*
X39192Y-16210D01*
X38911Y-16576D02*
X38911Y-16182D01*
X38911Y-15985D02*
X38939Y-16013D01*
X38911Y-16041D01*
X38883Y-16013D01*
X38911Y-15985D01*
X38911Y-16041D01*
X38546Y-16576D02*
X38602Y-16548D01*
X38630Y-16519D01*
X38658Y-16463D01*
X38658Y-16294D01*
X38630Y-16238D01*
X38602Y-16210D01*
X38546Y-16182D01*
X38461Y-16182D01*
X38405Y-16210D01*
X38377Y-16238D01*
X38349Y-16294D01*
X38349Y-16463D01*
X38377Y-16519D01*
X38405Y-16548D01*
X38461Y-16576D01*
X38546Y-16576D01*
X38096Y-16182D02*
X38096Y-16576D01*
X38096Y-16238D02*
X38068Y-16210D01*
X38011Y-16182D01*
X37927Y-16182D01*
X37871Y-16210D01*
X37843Y-16266D01*
X37843Y-16576D01*
X36802Y-16576D02*
X37140Y-16576D01*
X36971Y-16576D02*
X36971Y-15985D01*
X37027Y-16070D01*
X37083Y-16126D01*
X37140Y-16154D01*
X36549Y-16519D02*
X36521Y-16548D01*
X36549Y-16576D01*
X36577Y-16548D01*
X36549Y-16519D01*
X36549Y-16576D01*
X36155Y-15985D02*
X36099Y-15985D01*
X36043Y-16013D01*
X36015Y-16041D01*
X35987Y-16098D01*
X35958Y-16210D01*
X35958Y-16351D01*
X35987Y-16463D01*
X36015Y-16519D01*
X36043Y-16548D01*
X36099Y-16576D01*
X36155Y-16576D01*
X36212Y-16548D01*
X36240Y-16519D01*
X36268Y-16463D01*
X36296Y-16351D01*
X36296Y-16210D01*
X36268Y-16098D01*
X36240Y-16041D01*
X36212Y-16013D01*
X36155Y-15985D01*
M02*
